<svg width="175" height="38" viewBox="0 0 175 38" fill="none" xmlns="http://www.w3.org/2000/svg">
<path fill-rule="evenodd" clip-rule="evenodd" d="M27.8333 19C27.8333 26.0877 22.0877 31.8333 15 31.8333C7.91234 31.8333 2.16666 26.0877 2.16666 19C2.16666 11.9123 7.91234 6.16666 15 6.16666C22.0877 6.16666 27.8333 11.9123 27.8333 19ZM30 19C30 27.2843 23.2843 34 15 34C6.71573 34 0 27.2843 0 19C0 10.7157 6.71573 4 15 4C23.2843 4 30 10.7157 30 19ZM23.2759 12.2759C23.2759 13.1329 22.5812 13.8276 21.7242 13.8276C20.8672 13.8276 20.1725 13.1329 20.1725 12.2759C20.1725 11.4189 20.8672 10.7242 21.7242 10.7242C22.5812 10.7242 23.2759 11.4189 23.2759 12.2759ZM10.4879 20.209C11.1556 22.7009 13.717 24.1797 16.2089 23.512C18.7008 22.8443 20.1796 20.2829 19.5119 17.791C18.8442 15.2991 16.2828 13.8203 13.7909 14.488C11.299 15.1557 9.82015 17.7171 10.4879 20.209ZM8.39503 20.7698C9.37244 24.4175 13.1219 26.5823 16.7696 25.6049C20.4174 24.6274 22.5821 20.878 21.6047 17.2302C20.6273 13.5825 16.8779 11.4177 13.2301 12.3952C9.58236 13.3726 7.41762 17.122 8.39503 20.7698Z" fill="url(#paint0_linear_1_6)"/>
<path d="M46.976 28C46.3973 28 45.9493 27.8413 45.632 27.524C45.3147 27.188 45.156 26.7307 45.156 26.152V9.996C45.156 9.39867 45.3053 8.95067 45.604 8.652C45.9213 8.33467 46.3693 8.176 46.948 8.176C47.5267 8.176 47.9653 8.33467 48.264 8.652C48.5813 8.95067 48.74 9.39867 48.74 9.996V24.948H56.86C57.364 24.948 57.7467 25.0787 58.008 25.34C58.288 25.6013 58.428 25.9747 58.428 26.46C58.428 26.9453 58.288 27.328 58.008 27.608C57.7467 27.8693 57.364 28 56.86 28H46.976ZM66.6499 28.28C65.2313 28.28 63.9993 27.9907 62.9539 27.412C61.9086 26.8333 61.0966 26.012 60.5179 24.948C59.9393 23.8653 59.6499 22.596 59.6499 21.14C59.6499 20.0387 59.8086 19.0587 60.1259 18.2C60.4619 17.3227 60.9379 16.576 61.5539 15.96C62.1699 15.3253 62.9073 14.8493 63.7659 14.532C64.6246 14.196 65.5859 14.028 66.6499 14.028C68.0686 14.028 69.3006 14.3173 70.3459 14.896C71.3913 15.4747 72.2033 16.296 72.7819 17.36C73.3606 18.424 73.6499 19.684 73.6499 21.14C73.6499 22.2413 73.4819 23.2307 73.1459 24.108C72.8286 24.9853 72.3619 25.7413 71.7459 26.376C71.1299 26.992 70.3926 27.468 69.5339 27.804C68.6753 28.1213 67.7139 28.28 66.6499 28.28ZM66.6499 25.62C67.3406 25.62 67.9473 25.452 68.4699 25.116C68.9926 24.78 69.3939 24.2853 69.6739 23.632C69.9726 22.96 70.1219 22.1293 70.1219 21.14C70.1219 19.6467 69.8046 18.536 69.1699 17.808C68.5353 17.0613 67.6953 16.688 66.6499 16.688C65.9593 16.688 65.3526 16.856 64.8299 17.192C64.3073 17.5093 63.8966 18.004 63.5979 18.676C63.3179 19.3293 63.1779 20.1507 63.1779 21.14C63.1779 22.6147 63.4953 23.7347 64.1299 24.5C64.7646 25.2467 65.6046 25.62 66.6499 25.62ZM81.4948 28.28C80.3561 28.28 79.4134 28.0747 78.6668 27.664C77.9201 27.2347 77.3601 26.6 76.9868 25.76C76.6321 24.92 76.4548 23.8747 76.4548 22.624V15.848C76.4548 15.2507 76.6041 14.812 76.9028 14.532C77.2014 14.2333 77.6308 14.084 78.1908 14.084C78.7508 14.084 79.1801 14.2333 79.4788 14.532C79.7961 14.812 79.9548 15.2507 79.9548 15.848V22.68C79.9548 23.6507 80.1508 24.3693 80.5428 24.836C80.9348 25.3027 81.5601 25.536 82.4188 25.536C83.3521 25.536 84.1174 25.2187 84.7148 24.584C85.3121 23.9307 85.6108 23.072 85.6108 22.008V15.848C85.6108 15.2507 85.7601 14.812 86.0588 14.532C86.3574 14.2333 86.7868 14.084 87.3468 14.084C87.9068 14.084 88.3361 14.2333 88.6348 14.532C88.9521 14.812 89.1107 15.2507 89.1107 15.848V26.432C89.1107 27.6267 88.5414 28.224 87.4028 28.224C86.8614 28.224 86.4414 28.0747 86.1428 27.776C85.8441 27.4587 85.6948 27.0107 85.6948 26.432V24.304L86.0868 25.144C85.6948 26.152 85.0974 26.9267 84.2948 27.468C83.5108 28.0093 82.5774 28.28 81.4948 28.28ZM97.4296 28.28C95.8803 28.28 94.7136 27.8413 93.9296 26.964C93.1456 26.068 92.7536 24.7613 92.7536 23.044V9.8C92.7536 9.22133 92.9029 8.78267 93.2016 8.484C93.5003 8.18533 93.9296 8.036 94.4896 8.036C95.0496 8.036 95.4789 8.18533 95.7776 8.484C96.0949 8.78267 96.2536 9.22133 96.2536 9.8V22.876C96.2536 23.7347 96.4309 24.3693 96.7856 24.78C97.1589 25.1907 97.6816 25.396 98.3536 25.396C98.5029 25.396 98.6429 25.396 98.7736 25.396C98.9043 25.3773 99.0349 25.3587 99.1656 25.34C99.4269 25.3027 99.6043 25.3773 99.6976 25.564C99.7909 25.732 99.8376 26.0867 99.8376 26.628C99.8376 27.0947 99.7443 27.4587 99.5576 27.72C99.3709 27.9813 99.0629 28.14 98.6336 28.196C98.4469 28.2147 98.2509 28.2333 98.0456 28.252C97.8403 28.2707 97.6349 28.28 97.4296 28.28ZM103.431 28.196C102.871 28.196 102.442 28.028 102.143 27.692C101.844 27.356 101.695 26.8893 101.695 26.292V16.016C101.695 15.4 101.844 14.9333 102.143 14.616C102.442 14.28 102.871 14.112 103.431 14.112C103.991 14.112 104.42 14.28 104.719 14.616C105.036 14.9333 105.195 15.4 105.195 16.016V26.292C105.195 26.8893 105.046 27.356 104.747 27.692C104.448 28.028 104.01 28.196 103.431 28.196ZM103.431 11.508C102.778 11.508 102.264 11.3493 101.891 11.032C101.536 10.696 101.359 10.2387 101.359 9.66C101.359 9.06267 101.536 8.60533 101.891 8.288C102.264 7.97067 102.778 7.812 103.431 7.812C104.103 7.812 104.616 7.97067 104.971 8.288C105.326 8.60533 105.503 9.06267 105.503 9.66C105.503 10.2387 105.326 10.696 104.971 11.032C104.616 11.3493 104.103 11.508 103.431 11.508ZM115.216 33.32C114.208 33.32 113.228 33.2267 112.276 33.04C111.342 32.8533 110.493 32.564 109.728 32.172C109.373 31.9853 109.13 31.7613 109 31.5C108.888 31.2387 108.85 30.968 108.888 30.688C108.944 30.4267 109.056 30.1933 109.224 29.988C109.41 29.7827 109.634 29.6427 109.896 29.568C110.157 29.4933 110.428 29.5307 110.708 29.68C111.529 30.0907 112.304 30.352 113.032 30.464C113.778 30.5947 114.413 30.66 114.936 30.66C116.186 30.66 117.12 30.352 117.736 29.736C118.37 29.1387 118.688 28.2427 118.688 27.048V24.528H118.94C118.66 25.48 118.072 26.2453 117.176 26.824C116.298 27.384 115.3 27.664 114.18 27.664C112.948 27.664 111.874 27.384 110.96 26.824C110.045 26.2453 109.336 25.4427 108.832 24.416C108.328 23.3893 108.076 22.1947 108.076 20.832C108.076 19.8053 108.216 18.8813 108.496 18.06C108.794 17.22 109.205 16.5013 109.728 15.904C110.269 15.3067 110.913 14.8493 111.66 14.532C112.425 14.196 113.265 14.028 114.18 14.028C115.337 14.028 116.345 14.3173 117.204 14.896C118.081 15.456 118.65 16.2027 118.912 17.136L118.632 17.836V15.848C118.632 15.2693 118.781 14.8307 119.08 14.532C119.397 14.2333 119.826 14.084 120.368 14.084C120.928 14.084 121.357 14.2333 121.656 14.532C121.954 14.8307 122.104 15.2693 122.104 15.848V26.628C122.104 28.8493 121.516 30.52 120.34 31.64C119.164 32.76 117.456 33.32 115.216 33.32ZM115.132 25.004C115.86 25.004 116.485 24.836 117.008 24.5C117.53 24.164 117.932 23.688 118.212 23.072C118.51 22.4373 118.66 21.6907 118.66 20.832C118.66 19.544 118.342 18.536 117.708 17.808C117.073 17.0613 116.214 16.688 115.132 16.688C114.404 16.688 113.778 16.856 113.256 17.192C112.733 17.528 112.322 18.004 112.024 18.62C111.744 19.236 111.604 19.9733 111.604 20.832C111.604 22.12 111.921 23.1373 112.556 23.884C113.19 24.6307 114.049 25.004 115.132 25.004ZM127.522 28.224C126.943 28.224 126.495 28.0747 126.178 27.776C125.879 27.4587 125.73 27.0107 125.73 26.432V15.848C125.73 15.2693 125.879 14.8307 126.178 14.532C126.477 14.2333 126.897 14.084 127.438 14.084C127.979 14.084 128.399 14.2333 128.698 14.532C128.997 14.8307 129.146 15.2693 129.146 15.848V17.612H128.866C129.127 16.492 129.641 15.6427 130.406 15.064C131.171 14.4853 132.189 14.14 133.458 14.028C133.85 13.9907 134.158 14.0933 134.382 14.336C134.625 14.56 134.765 14.9147 134.802 15.4C134.839 15.8667 134.727 16.2493 134.466 16.548C134.223 16.828 133.85 16.996 133.346 17.052L132.73 17.108C131.591 17.22 130.733 17.5747 130.154 18.172C129.575 18.7507 129.286 19.572 129.286 20.636V26.432C129.286 27.0107 129.137 27.4587 128.838 27.776C128.539 28.0747 128.101 28.224 127.522 28.224ZM141.066 28.28C140.077 28.28 139.19 28.0933 138.406 27.72C137.641 27.328 137.034 26.8053 136.586 26.152C136.157 25.4987 135.942 24.7613 135.942 23.94C135.942 22.932 136.204 22.1387 136.726 21.56C137.249 20.9627 138.098 20.5333 139.274 20.272C140.45 20.0107 142.028 19.88 144.006 19.88H145.406V21.896H144.034C142.877 21.896 141.953 21.952 141.262 22.064C140.572 22.176 140.077 22.372 139.778 22.652C139.498 22.9133 139.358 23.2867 139.358 23.772C139.358 24.388 139.573 24.892 140.002 25.284C140.432 25.676 141.029 25.872 141.794 25.872C142.41 25.872 142.952 25.732 143.418 25.452C143.904 25.1533 144.286 24.752 144.566 24.248C144.846 23.744 144.986 23.1653 144.986 22.512V19.292C144.986 18.3587 144.781 17.6867 144.37 17.276C143.96 16.8653 143.269 16.66 142.298 16.66C141.757 16.66 141.169 16.7253 140.534 16.856C139.918 16.9867 139.265 17.2107 138.574 17.528C138.22 17.696 137.902 17.7427 137.622 17.668C137.361 17.5933 137.156 17.444 137.006 17.22C136.857 16.9773 136.782 16.716 136.782 16.436C136.782 16.156 136.857 15.8853 137.006 15.624C137.156 15.344 137.408 15.1387 137.762 15.008C138.621 14.6533 139.442 14.4013 140.226 14.252C141.029 14.1027 141.757 14.028 142.41 14.028C143.754 14.028 144.856 14.2333 145.714 14.644C146.592 15.0547 147.245 15.68 147.674 16.52C148.104 17.3413 148.318 18.4053 148.318 19.712V26.432C148.318 27.0107 148.178 27.4587 147.898 27.776C147.618 28.0747 147.217 28.224 146.694 28.224C146.172 28.224 145.761 28.0747 145.462 27.776C145.182 27.4587 145.042 27.0107 145.042 26.432V25.088H145.266C145.136 25.7413 144.874 26.3107 144.482 26.796C144.109 27.2627 143.633 27.6267 143.054 27.888C142.476 28.1493 141.813 28.28 141.066 28.28ZM153.663 28.224C153.103 28.224 152.673 28.0747 152.375 27.776C152.076 27.4587 151.927 27.0107 151.927 26.432V15.848C151.927 15.2693 152.076 14.8307 152.375 14.532C152.673 14.2333 153.093 14.084 153.635 14.084C154.176 14.084 154.596 14.2333 154.895 14.532C155.193 14.8307 155.343 15.2693 155.343 15.848V17.892L155.035 17.052C155.408 16.1187 155.987 15.3813 156.771 14.84C157.555 14.2987 158.488 14.028 159.571 14.028C160.672 14.028 161.577 14.2893 162.287 14.812C162.996 15.3347 163.491 16.1373 163.771 17.22H163.379C163.752 16.2307 164.368 15.456 165.227 14.896C166.085 14.3173 167.075 14.028 168.195 14.028C169.24 14.028 170.099 14.2333 170.771 14.644C171.461 15.0547 171.975 15.68 172.311 16.52C172.647 17.3413 172.815 18.3867 172.815 19.656V26.432C172.815 27.0107 172.656 27.4587 172.339 27.776C172.04 28.0747 171.611 28.224 171.051 28.224C170.491 28.224 170.061 28.0747 169.763 27.776C169.464 27.4587 169.315 27.0107 169.315 26.432V19.796C169.315 18.7507 169.137 17.9853 168.783 17.5C168.447 17.0147 167.868 16.772 167.047 16.772C166.132 16.772 165.413 17.0987 164.891 17.752C164.368 18.3867 164.107 19.2733 164.107 20.412V26.432C164.107 27.0107 163.957 27.4587 163.659 27.776C163.36 28.0747 162.931 28.224 162.371 28.224C161.811 28.224 161.372 28.0747 161.055 27.776C160.756 27.4587 160.607 27.0107 160.607 26.432V19.796C160.607 18.7507 160.429 17.9853 160.075 17.5C159.739 17.0147 159.169 16.772 158.367 16.772C157.452 16.772 156.733 17.0987 156.211 17.752C155.688 18.3867 155.427 19.2733 155.427 20.412V26.432C155.427 27.6267 154.839 28.224 153.663 28.224Z" fill="white"/>
<defs>
<linearGradient id="paint0_linear_1_6" x1="15" y1="4" x2="15" y2="34" gradientUnits="userSpaceOnUse">
<stop stop-color="#877EFF"/>
<stop offset="0.461458" stop-color="#685DFF"/>
<stop offset="1" stop-color="#3121FF"/>
</linearGradient>
</defs>
</svg>
