<svg width="175" height="38" viewBox="0 0 175 38" fill="none" xmlns="http://www.w3.org/2000/svg">
<path fill-rule="evenodd" clip-rule="evenodd" d="M30.2167 19C30.2167 25.6152 20.9652 30.9777 14.35 30.9777C7.73486 30.9777 2.37222 25.6152 2.37222 19C2.37222 12.3848 7.73486 7.02222 14.35 7.02222C20.9652 7.02222 30.2167 12.3848 30.2167 19ZM38.15 19C38.15 26.732 22.082 33 14.35 33C6.61802 33 0.350006 26.732 0.350006 19C0.350006 11.268 6.61802 5 14.35 5C22.082 5 38.15 11.268 38.15 19ZM10.1387 20.1284C10.7619 22.4542 13.1525 23.8344 15.4783 23.2112C17.8041 22.588 19.8009 20.1974 19.1777 17.8716C18.5545 15.5458 15.5473 14.1656 13.2215 14.7888C10.8957 15.412 9.51548 17.8026 10.1387 20.1284ZM8.18537 20.6518C9.09762 24.0563 12.5971 26.0768 16.0016 25.1646C19.4062 24.2522 22.9864 21.2762 22.0742 17.8716C21.1619 14.4671 16.1027 11.9232 12.6981 12.8355C9.29354 13.7478 7.27312 17.2472 8.18537 20.6518Z" fill="black"/>
<path d="M47.976 28C47.3973 28 46.9493 27.8413 46.632 27.524C46.3147 27.188 46.156 26.7307 46.156 26.152V9.99601C46.156 9.39868 46.3053 8.95068 46.604 8.65201C46.9213 8.33468 47.3693 8.17601 47.948 8.17601C48.5267 8.17601 48.9653 8.33468 49.264 8.65201C49.5813 8.95068 49.74 9.39868 49.74 9.99601V24.948H57.86C58.364 24.948 58.7467 25.0787 59.008 25.34C59.288 25.6013 59.428 25.9747 59.428 26.46C59.428 26.9453 59.288 27.328 59.008 27.608C58.7467 27.8693 58.364 28 57.86 28H47.976ZM67.6499 28.28C66.2313 28.28 64.9993 27.9907 63.9539 27.412C62.9086 26.8333 62.0966 26.012 61.5179 24.948C60.9393 23.8653 60.6499 22.596 60.6499 21.14C60.6499 20.0387 60.8086 19.0587 61.1259 18.2C61.4619 17.3227 61.9379 16.576 62.5539 15.96C63.1699 15.3253 63.9073 14.8493 64.7659 14.532C65.6246 14.196 66.5859 14.028 67.6499 14.028C69.0686 14.028 70.3006 14.3173 71.3459 14.896C72.3913 15.4747 73.2033 16.296 73.7819 17.36C74.3606 18.424 74.6499 19.684 74.6499 21.14C74.6499 22.2413 74.4819 23.2307 74.1459 24.108C73.8286 24.9853 73.3619 25.7413 72.7459 26.376C72.1299 26.992 71.3926 27.468 70.5339 27.804C69.6753 28.1213 68.7139 28.28 67.6499 28.28ZM67.6499 25.62C68.3406 25.62 68.9473 25.452 69.4699 25.116C69.9926 24.78 70.3939 24.2853 70.6739 23.632C70.9726 22.96 71.1219 22.1293 71.1219 21.14C71.1219 19.6467 70.8046 18.536 70.1699 17.808C69.5353 17.0613 68.6953 16.688 67.6499 16.688C66.9593 16.688 66.3526 16.856 65.8299 17.192C65.3073 17.5093 64.8966 18.004 64.5979 18.676C64.3179 19.3293 64.1779 20.1507 64.1779 21.14C64.1779 22.6147 64.4953 23.7347 65.1299 24.5C65.7646 25.2467 66.6046 25.62 67.6499 25.62ZM82.4948 28.28C81.3561 28.28 80.4134 28.0747 79.6668 27.664C78.9201 27.2347 78.3601 26.6 77.9868 25.76C77.6321 24.92 77.4548 23.8747 77.4548 22.624V15.848C77.4548 15.2507 77.6041 14.812 77.9028 14.532C78.2014 14.2333 78.6308 14.084 79.1908 14.084C79.7508 14.084 80.1801 14.2333 80.4788 14.532C80.7961 14.812 80.9548 15.2507 80.9548 15.848V22.68C80.9548 23.6507 81.1508 24.3693 81.5428 24.836C81.9348 25.3027 82.5601 25.536 83.4188 25.536C84.3521 25.536 85.1174 25.2187 85.7148 24.584C86.3121 23.9307 86.6108 23.072 86.6108 22.008V15.848C86.6108 15.2507 86.7601 14.812 87.0588 14.532C87.3574 14.2333 87.7868 14.084 88.3468 14.084C88.9068 14.084 89.3361 14.2333 89.6348 14.532C89.9521 14.812 90.1107 15.2507 90.1107 15.848V26.432C90.1107 27.6267 89.5414 28.224 88.4028 28.224C87.8614 28.224 87.4414 28.0747 87.1428 27.776C86.8441 27.4587 86.6948 27.0107 86.6948 26.432V24.304L87.0868 25.144C86.6948 26.152 86.0974 26.9267 85.2948 27.468C84.5108 28.0093 83.5774 28.28 82.4948 28.28ZM98.4296 28.28C96.8803 28.28 95.7136 27.8413 94.9296 26.964C94.1456 26.068 93.7536 24.7613 93.7536 23.044V9.80001C93.7536 9.22134 93.9029 8.78268 94.2016 8.48401C94.5003 8.18534 94.9296 8.03601 95.4896 8.03601C96.0496 8.03601 96.4789 8.18534 96.7776 8.48401C97.0949 8.78268 97.2536 9.22134 97.2536 9.80001V22.876C97.2536 23.7347 97.4309 24.3693 97.7856 24.78C98.1589 25.1907 98.6816 25.396 99.3536 25.396C99.5029 25.396 99.6429 25.396 99.7736 25.396C99.9043 25.3773 100.035 25.3587 100.166 25.34C100.427 25.3027 100.604 25.3773 100.698 25.564C100.791 25.732 100.838 26.0867 100.838 26.628C100.838 27.0947 100.744 27.4587 100.558 27.72C100.371 27.9813 100.063 28.14 99.6336 28.196C99.4469 28.2147 99.2509 28.2333 99.0456 28.252C98.8403 28.2707 98.6349 28.28 98.4296 28.28ZM104.431 28.196C103.871 28.196 103.442 28.028 103.143 27.692C102.844 27.356 102.695 26.8893 102.695 26.292V16.016C102.695 15.4 102.844 14.9333 103.143 14.616C103.442 14.28 103.871 14.112 104.431 14.112C104.991 14.112 105.42 14.28 105.719 14.616C106.036 14.9333 106.195 15.4 106.195 16.016V26.292C106.195 26.8893 106.046 27.356 105.747 27.692C105.448 28.028 105.01 28.196 104.431 28.196ZM104.431 11.508C103.778 11.508 103.264 11.3493 102.891 11.032C102.536 10.696 102.359 10.2387 102.359 9.66001C102.359 9.06268 102.536 8.60534 102.891 8.28801C103.264 7.97068 103.778 7.81201 104.431 7.81201C105.103 7.81201 105.616 7.97068 105.971 8.28801C106.326 8.60534 106.503 9.06268 106.503 9.66001C106.503 10.2387 106.326 10.696 105.971 11.032C105.616 11.3493 105.103 11.508 104.431 11.508ZM116.216 33.32C115.208 33.32 114.228 33.2267 113.276 33.04C112.342 32.8533 111.493 32.564 110.728 32.172C110.373 31.9853 110.13 31.7613 110 31.5C109.888 31.2387 109.85 30.968 109.888 30.688C109.944 30.4267 110.056 30.1933 110.224 29.988C110.41 29.7827 110.634 29.6427 110.896 29.568C111.157 29.4933 111.428 29.5307 111.708 29.68C112.529 30.0907 113.304 30.352 114.032 30.464C114.778 30.5947 115.413 30.66 115.936 30.66C117.186 30.66 118.12 30.352 118.736 29.736C119.37 29.1387 119.688 28.2427 119.688 27.048V24.528H119.94C119.66 25.48 119.072 26.2453 118.176 26.824C117.298 27.384 116.3 27.664 115.18 27.664C113.948 27.664 112.874 27.384 111.96 26.824C111.045 26.2453 110.336 25.4427 109.832 24.416C109.328 23.3893 109.076 22.1947 109.076 20.832C109.076 19.8053 109.216 18.8813 109.496 18.06C109.794 17.22 110.205 16.5013 110.728 15.904C111.269 15.3067 111.913 14.8493 112.66 14.532C113.425 14.196 114.265 14.028 115.18 14.028C116.337 14.028 117.345 14.3173 118.204 14.896C119.081 15.456 119.65 16.2027 119.912 17.136L119.632 17.836V15.848C119.632 15.2693 119.781 14.8307 120.08 14.532C120.397 14.2333 120.826 14.084 121.368 14.084C121.928 14.084 122.357 14.2333 122.656 14.532C122.954 14.8307 123.104 15.2693 123.104 15.848V26.628C123.104 28.8493 122.516 30.52 121.34 31.64C120.164 32.76 118.456 33.32 116.216 33.32ZM116.132 25.004C116.86 25.004 117.485 24.836 118.008 24.5C118.53 24.164 118.932 23.688 119.212 23.072C119.51 22.4373 119.66 21.6907 119.66 20.832C119.66 19.544 119.342 18.536 118.708 17.808C118.073 17.0613 117.214 16.688 116.132 16.688C115.404 16.688 114.778 16.856 114.256 17.192C113.733 17.528 113.322 18.004 113.024 18.62C112.744 19.236 112.604 19.9733 112.604 20.832C112.604 22.12 112.921 23.1373 113.556 23.884C114.19 24.6307 115.049 25.004 116.132 25.004ZM128.522 28.224C127.943 28.224 127.495 28.0747 127.178 27.776C126.879 27.4587 126.73 27.0107 126.73 26.432V15.848C126.73 15.2693 126.879 14.8307 127.178 14.532C127.477 14.2333 127.897 14.084 128.438 14.084C128.979 14.084 129.399 14.2333 129.698 14.532C129.997 14.8307 130.146 15.2693 130.146 15.848V17.612H129.866C130.127 16.492 130.641 15.6427 131.406 15.064C132.171 14.4853 133.189 14.14 134.458 14.028C134.85 13.9907 135.158 14.0933 135.382 14.336C135.625 14.56 135.765 14.9147 135.802 15.4C135.839 15.8667 135.727 16.2493 135.466 16.548C135.223 16.828 134.85 16.996 134.346 17.052L133.73 17.108C132.591 17.22 131.733 17.5747 131.154 18.172C130.575 18.7507 130.286 19.572 130.286 20.636V26.432C130.286 27.0107 130.137 27.4587 129.838 27.776C129.539 28.0747 129.101 28.224 128.522 28.224ZM142.066 28.28C141.077 28.28 140.19 28.0933 139.406 27.72C138.641 27.328 138.034 26.8053 137.586 26.152C137.157 25.4987 136.942 24.7613 136.942 23.94C136.942 22.932 137.204 22.1387 137.726 21.56C138.249 20.9627 139.098 20.5333 140.274 20.272C141.45 20.0107 143.028 19.88 145.006 19.88H146.406V21.896H145.034C143.877 21.896 142.953 21.952 142.262 22.064C141.572 22.176 141.077 22.372 140.778 22.652C140.498 22.9133 140.358 23.2867 140.358 23.772C140.358 24.388 140.573 24.892 141.002 25.284C141.432 25.676 142.029 25.872 142.794 25.872C143.41 25.872 143.952 25.732 144.418 25.452C144.904 25.1533 145.286 24.752 145.566 24.248C145.846 23.744 145.986 23.1653 145.986 22.512V19.292C145.986 18.3587 145.781 17.6867 145.37 17.276C144.96 16.8653 144.269 16.66 143.298 16.66C142.757 16.66 142.169 16.7253 141.534 16.856C140.918 16.9867 140.265 17.2107 139.574 17.528C139.22 17.696 138.902 17.7427 138.622 17.668C138.361 17.5933 138.156 17.444 138.006 17.22C137.857 16.9773 137.782 16.716 137.782 16.436C137.782 16.156 137.857 15.8853 138.006 15.624C138.156 15.344 138.408 15.1387 138.762 15.008C139.621 14.6533 140.442 14.4013 141.226 14.252C142.029 14.1027 142.757 14.028 143.41 14.028C144.754 14.028 145.856 14.2333 146.714 14.644C147.592 15.0547 148.245 15.68 148.674 16.52C149.104 17.3413 149.318 18.4053 149.318 19.712V26.432C149.318 27.0107 149.178 27.4587 148.898 27.776C148.618 28.0747 148.217 28.224 147.694 28.224C147.172 28.224 146.761 28.0747 146.462 27.776C146.182 27.4587 146.042 27.0107 146.042 26.432V25.088H146.266C146.136 25.7413 145.874 26.3107 145.482 26.796C145.109 27.2627 144.633 27.6267 144.054 27.888C143.476 28.1493 142.813 28.28 142.066 28.28ZM154.663 28.224C154.103 28.224 153.673 28.0747 153.375 27.776C153.076 27.4587 152.927 27.0107 152.927 26.432V15.848C152.927 15.2693 153.076 14.8307 153.375 14.532C153.673 14.2333 154.093 14.084 154.635 14.084C155.176 14.084 155.596 14.2333 155.895 14.532C156.193 14.8307 156.343 15.2693 156.343 15.848V17.892L156.035 17.052C156.408 16.1187 156.987 15.3813 157.771 14.84C158.555 14.2987 159.488 14.028 160.571 14.028C161.672 14.028 162.577 14.2893 163.287 14.812C163.996 15.3347 164.491 16.1373 164.771 17.22H164.379C164.752 16.2307 165.368 15.456 166.227 14.896C167.085 14.3173 168.075 14.028 169.195 14.028C170.24 14.028 171.099 14.2333 171.771 14.644C172.461 15.0547 172.975 15.68 173.311 16.52C173.647 17.3413 173.815 18.3867 173.815 19.656V26.432C173.815 27.0107 173.656 27.4587 173.339 27.776C173.04 28.0747 172.611 28.224 172.051 28.224C171.491 28.224 171.061 28.0747 170.763 27.776C170.464 27.4587 170.315 27.0107 170.315 26.432V19.796C170.315 18.7507 170.137 17.9853 169.783 17.5C169.447 17.0147 168.868 16.772 168.047 16.772C167.132 16.772 166.413 17.0987 165.891 17.752C165.368 18.3867 165.107 19.2733 165.107 20.412V26.432C165.107 27.0107 164.957 27.4587 164.659 27.776C164.36 28.0747 163.931 28.224 163.371 28.224C162.811 28.224 162.372 28.0747 162.055 27.776C161.756 27.4587 161.607 27.0107 161.607 26.432V19.796C161.607 18.7507 161.429 17.9853 161.075 17.5C160.739 17.0147 160.169 16.772 159.367 16.772C158.452 16.772 157.733 17.0987 157.211 17.752C156.688 18.3867 156.427 19.2733 156.427 20.412V26.432C156.427 27.6267 155.839 28.224 154.663 28.224Z" fill="black"/>
</svg>
