<svg width="20" height="20" viewBox="0 0 20 20" fill="none" xmlns="http://www.w3.org/2000/svg">
<path fill-rule="evenodd" clip-rule="evenodd" d="M8.10502 3.84001C8.09431 3.84953 8.08358 3.85908 8.07281 3.86865L4.72796 6.84185C4.10384 7.39659 3.58646 7.85646 3.23122 8.27392C2.85786 8.71268 2.59201 9.18505 2.59201 9.76958C2.59201 10.3541 2.85786 10.8265 3.23121 11.2652C3.58645 11.6827 4.10383 12.1426 4.72796 12.6973L8.07281 15.6705C8.08358 15.6801 8.09432 15.6896 8.10502 15.6992C8.37538 15.9395 8.6277 16.1639 8.84569 16.3078C9.05975 16.4492 9.44901 16.6545 9.88507 16.4586C10.3211 16.2628 10.4263 15.8355 10.4629 15.5816C10.5001 15.3231 10.5001 14.9854 10.5 14.6236C10.5 14.6093 10.5 14.5949 10.5 14.5805V13.2734C11.7096 13.3568 12.9353 13.678 14.0075 14.2005C15.2683 14.8148 16.2752 15.6859 16.8216 16.7268C16.9553 16.9814 17.2454 17.1119 17.5246 17.0431C17.8038 16.9742 18 16.7238 18 16.4362C18 12.5021 16.8489 9.94047 15.2029 8.36562C13.7682 6.99291 12.0197 6.42964 10.5 6.31176V4.95862C10.5 4.94422 10.5 4.92985 10.5 4.91552C10.5001 4.55375 10.5001 4.2161 10.4629 3.95756C10.4263 3.70366 10.3211 3.27634 9.88507 3.08052C9.44901 2.8847 9.05975 3.09 8.84569 3.23133C8.6277 3.37526 8.37538 3.59962 8.10502 3.84001ZM9.24745 4.50038C9.15323 4.58113 9.04073 4.68072 8.90327 4.80291L5.59302 7.74535C4.92545 8.33875 4.47501 8.74108 4.1832 9.084C3.90296 9.41334 3.84201 9.60567 3.84201 9.76958C3.84201 9.93349 3.90295 10.1258 4.18319 10.4552C4.47501 10.7981 4.92544 11.2004 5.59302 11.7938L8.90327 14.7363C9.04073 14.8584 9.15323 14.958 9.24745 15.0388C9.2497 14.9147 9.25001 14.7645 9.25001 14.5805V12.6267C9.25001 12.2815 9.52983 12.0017 9.87501 12.0017C11.4688 12.0017 13.125 12.38 14.555 13.0768C15.3207 13.4499 16.0335 13.9205 16.6384 14.4836C16.3311 11.9444 15.423 10.3062 14.3388 9.26879C12.9887 7.97706 11.283 7.53744 9.87501 7.53744C9.52983 7.53744 9.25001 7.25762 9.25001 6.91244V4.95862C9.25001 4.7747 9.2497 4.62445 9.24745 4.50038Z" fill="#1C1C1C"/>
</svg>
