<svg width="20" height="20" viewBox="0 0 20 20" fill="none" xmlns="http://www.w3.org/2000/svg">
<path fill-rule="evenodd" clip-rule="evenodd" d="M9.99999 1.0415C7.81389 1.0415 6.04169 2.81371 6.04169 4.99984C6.04169 7.18596 7.81389 8.95817 9.99999 8.95817C12.1862 8.95817 13.9584 7.18596 13.9584 4.99984C13.9584 2.81371 12.1862 1.0415 9.99999 1.0415ZM7.29169 4.99984C7.29169 3.50407 8.50425 2.2915 9.99999 2.2915C11.4958 2.2915 12.7084 3.50407 12.7084 4.99984C12.7084 6.49561 11.4958 7.70817 9.99999 7.70817C8.50425 7.70817 7.29169 6.49561 7.29169 4.99984Z" fill="#1C1C1C"/>
<path fill-rule="evenodd" clip-rule="evenodd" d="M10 10.2083C8.07207 10.2083 6.2958 10.6465 4.97957 11.3869C3.68293 12.1162 2.70836 13.2217 2.70836 14.5833L2.70831 14.6682C2.70737 15.6364 2.70619 16.8516 3.77204 17.7196C4.2966 18.1467 5.03043 18.4505 6.02187 18.6512C7.01608 18.8524 8.31189 18.9583 10 18.9583C11.6882 18.9583 12.984 18.8524 13.9782 18.6512C14.9696 18.4505 15.7035 18.1467 16.228 17.7196C17.2939 16.8516 17.2927 15.6364 17.2918 14.6682L17.2917 14.5833C17.2917 13.2217 16.3171 12.1162 15.0205 11.3869C13.7043 10.6465 11.928 10.2083 10 10.2083ZM3.95836 14.5833C3.95836 13.8738 4.47618 13.1042 5.5924 12.4764C6.68903 11.8595 8.24609 11.4583 10 11.4583C11.754 11.4583 13.311 11.8595 14.4077 12.4764C15.5239 13.1042 16.0417 13.8738 16.0417 14.5833C16.0417 15.6731 16.0081 16.2866 15.4387 16.7503C15.1299 17.0017 14.6138 17.2472 13.7302 17.426C12.8494 17.6043 11.6452 17.7083 10 17.7083C8.35484 17.7083 7.15065 17.6043 6.26986 17.426C5.3863 17.2472 4.87013 17.0017 4.56135 16.7503C3.99196 16.2866 3.95836 15.6731 3.95836 14.5833Z" fill="#1C1C1C"/>
</svg>
