<svg width="24" height="24" viewBox="0 0 24 24" fill="none" xmlns="http://www.w3.org/2000/svg">
<path fill-rule="evenodd" clip-rule="evenodd" d="M10.9451 1.25H13.0549C14.4225 1.24998 15.5248 1.24996 16.3918 1.36652C17.2919 1.48754 18.0497 1.74643 18.6517 2.34835C19.0519 2.74855 19.3004 3.2177 19.4576 3.75175C19.6692 3.75503 19.8458 3.76426 20.0084 3.79001C21.3991 4.01027 22.4897 5.10094 22.71 6.49159C22.7502 6.74548 22.7501 7.03358 22.75 7.43528C22.75 7.45653 22.75 7.4781 22.75 7.5V16.5C22.75 16.5219 22.75 16.5435 22.75 16.5647C22.7501 16.9664 22.7502 17.2545 22.71 17.5084C22.4897 18.8991 21.3991 19.9897 20.0084 20.21C19.8458 20.2357 19.6692 20.245 19.4576 20.2482C19.3004 20.7823 19.0519 21.2514 18.6517 21.6517C18.0497 22.2536 17.2919 22.5125 16.3918 22.6335C15.5248 22.75 14.4225 22.75 13.0549 22.75H10.9451C9.57753 22.75 8.47521 22.75 7.60824 22.6335C6.70813 22.5125 5.95026 22.2536 5.34834 21.6517C4.94814 21.2514 4.69957 20.7823 4.54235 20.2482C4.33082 20.245 4.15419 20.2357 3.99158 20.21C2.60093 19.9897 1.51026 18.8991 1.29 17.5084C1.24979 17.2545 1.24987 16.9664 1.24998 16.5647C1.24998 16.5435 1.24999 16.5219 1.24999 16.5V7.5C1.24999 7.4781 1.24998 7.45652 1.24998 7.43527C1.24987 7.03357 1.24979 6.74548 1.29 6.49159C1.51026 5.10094 2.60093 4.01027 3.99158 3.79001C4.15419 3.76426 4.33083 3.75503 4.54235 3.75175C4.69957 3.2177 4.94814 2.74855 5.34834 2.34835C5.95026 1.74643 6.70813 1.48754 7.60824 1.36652C8.47521 1.24996 9.57753 1.24998 10.9451 1.25ZM4.3019 5.26229C4.27392 5.26483 4.24939 5.26788 4.22623 5.27155C3.47742 5.39015 2.89014 5.97743 2.77154 6.72624C2.75232 6.84758 2.74999 7.00684 2.74999 7.5V16.5C2.74999 16.9932 2.75232 17.1524 2.77154 17.2738C2.89014 18.0226 3.47742 18.6099 4.22623 18.7285C4.24939 18.7321 4.27392 18.7352 4.3019 18.7377C4.24996 17.9893 4.24997 17.0995 4.24999 16.0549V14.8166V14.8151V7.94512C4.24997 6.90052 4.24996 6.01069 4.3019 5.26229ZM5.74999 15.1209V16C5.74999 17.4354 5.75158 18.4365 5.85314 19.1919C5.95179 19.9257 6.13224 20.3142 6.409 20.591C6.68576 20.8678 7.07433 21.0482 7.80811 21.1469C8.56346 21.2484 9.56457 21.25 11 21.25H13C14.4354 21.25 15.4365 21.2484 16.1919 21.1469C16.9257 21.0482 17.3142 20.8678 17.591 20.591C17.743 20.439 17.8659 20.2533 17.9622 19.9952L16.0804 18.0092C15.577 17.478 14.8816 17.4416 14.3519 17.8781L14.1322 18.0591C13.2159 18.8142 11.9548 18.6658 11.1952 17.7751L8.03432 14.0687C7.68428 13.6583 7.18507 13.6485 6.82773 14.0152L5.74999 15.1209ZM18.2292 18.0961L17.1692 16.9775C16.1406 15.892 14.5546 15.7673 13.398 16.7205L13.1783 16.9016C12.9227 17.1121 12.5897 17.0987 12.3365 16.8018L9.17564 13.0954C8.2639 12.0263 6.73912 11.957 5.75354 12.9682L5.74999 12.9719V8C5.74999 6.56458 5.75158 5.56347 5.85314 4.80812C5.95179 4.07435 6.13224 3.68577 6.409 3.40901C6.68576 3.13225 7.07434 2.9518 7.80811 2.85315C8.56346 2.75159 9.56457 2.75 11 2.75H13C14.4354 2.75 15.4365 2.75159 16.1919 2.85315C16.9257 2.9518 17.3142 3.13225 17.591 3.40901C17.8678 3.68577 18.0482 4.07435 18.1469 4.80812C18.2484 5.56347 18.25 6.56458 18.25 8V16C18.25 16.8326 18.2495 17.519 18.2292 18.0961ZM19.6981 18.7377C19.7261 18.7352 19.7506 18.7321 19.7738 18.7285C20.5226 18.6099 21.1099 18.0226 21.2285 17.2738C21.2477 17.1524 21.25 16.9932 21.25 16.5V7.5C21.25 7.00684 21.2477 6.84758 21.2285 6.72624C21.1099 5.97743 20.5226 5.39015 19.7738 5.27155C19.7506 5.26788 19.7261 5.26483 19.6981 5.26229C19.75 6.01069 19.75 6.90053 19.75 7.94513V16.0549C19.75 17.0995 19.75 17.9893 19.6981 18.7377ZM14.5 5.75C14.0858 5.75 13.75 6.08579 13.75 6.5C13.75 6.91421 14.0858 7.25 14.5 7.25C14.9142 7.25 15.25 6.91421 15.25 6.5C15.25 6.08579 14.9142 5.75 14.5 5.75ZM12.25 6.5C12.25 5.25736 13.2574 4.25 14.5 4.25C15.7426 4.25 16.75 5.25736 16.75 6.5C16.75 7.74264 15.7426 8.75 14.5 8.75C13.2574 8.75 12.25 7.74264 12.25 6.5Z" fill="#1C1C1C"/>
</svg>
